<?xml version="1.0" standalone="no"?>
<!DOCTYPE svg PUBLIC "-//W3C//DTD SVG 20010904//EN"
 "http://www.w3.org/TR/2001/REC-SVG-20010904/DTD/svg10.dtd">
<svg version="1.0" xmlns="http://www.w3.org/2000/svg"
 width="377.000000pt" height="373.000000pt" viewBox="0 0 377.000000 373.000000"
 preserveAspectRatio="xMidYMid meet">
<metadata>
Created by potrace 1.15, written by Peter Selinger 2001-2017
</metadata>
<g transform="translate(0.000000,373.000000) scale(0.100000,-0.100000)"
fill="#000000" stroke="none">
<path d="M1064 3165 c-4 -8 -4 -25 -1 -37 4 -15 -18 -54 -85 -149 -73 -103
-96 -129 -115 -129 -30 0 -45 -37 -41 -104 l3 -51 59 -29 58 -30 -6 -44 c-3
-25 -6 -58 -6 -73 0 -26 -4 -29 -30 -29 -20 0 -42 -11 -67 -34 -36 -33 -37
-33 -35 -109 3 -114 32 -169 95 -183 l30 -6 -7 -302 c-3 -165 -9 -398 -13
-517 l-6 -216 -33 -12 c-19 -7 -42 -27 -55 -47 -20 -33 -21 -45 -16 -130 7
-106 23 -145 70 -175 29 -19 43 -20 152 -14 433 21 509 26 512 29 4 4 123 377
123 385 0 2 -94 1 -210 -3 l-209 -7 5 143 c2 79 9 309 14 512 6 203 12 371 14
374 20 19 904 24 1132 6 l71 -6 6 -322 c4 -176 10 -408 14 -514 l6 -193 -211
7 -211 7 44 -139 c25 -76 52 -164 61 -195 l16 -57 116 -6 c65 -4 199 -11 299
-17 101 -6 198 -8 217 -5 44 8 92 62 100 113 4 21 8 70 9 110 2 80 -15 115
-69 143 -16 8 -32 19 -35 23 -3 5 -9 155 -13 335 -3 180 -9 409 -13 510 -6
167 -5 182 11 182 30 0 75 29 90 58 7 15 17 61 21 104 5 60 3 82 -9 107 -18
34 -62 61 -101 61 -25 0 -25 1 -25 75 l0 75 55 27 55 27 0 66 c0 70 -10 90
-44 90 -31 0 -189 231 -196 285 -5 38 -7 40 -43 43 -48 4 -70 -12 -62 -47 4
-21 -12 -53 -76 -157 -68 -108 -87 -132 -113 -140 -26 -8 -31 -15 -34 -44 -2
-19 1 -53 5 -74 8 -36 14 -42 58 -60 28 -11 51 -20 51 -20 1 -1 5 -27 8 -58
l7 -58 -101 0 -102 0 7 75 7 75 -76 0 c-42 0 -79 1 -83 3 -5 1 -9 -31 -11 -70
l-3 -73 -79 0 -80 0 0 75 0 75 -80 0 -80 0 0 -75 0 -75 -80 0 -80 0 0 76 c0
65 -2 75 -16 70 -9 -3 -45 -6 -80 -6 l-64 0 0 -75 0 -75 -95 0 -95 0 0 55 0
54 58 28 57 28 0 69 c0 70 -3 77 -46 89 -9 3 -51 62 -94 132 -60 95 -79 135
-79 163 -1 37 -1 37 -49 40 -36 2 -49 -1 -53 -13z"/>
<path d="M1590 2110 c-10 -18 -3 -31 58 -98 39 -42 82 -88 96 -101 26 -24 26
-26 26 -166 0 -78 -5 -156 -11 -174 -10 -30 -13 -31 -64 -31 -78 0 -105 -13
-105 -50 0 -37 16 -42 130 -38 l85 3 35 74 c34 70 37 72 50 53 8 -11 32 -40
53 -65 l38 -45 -26 -52 c-14 -28 -25 -61 -23 -72 4 -26 30 -43 51 -35 15 6 97
155 97 176 0 6 -22 37 -50 70 l-50 60 0 137 0 136 91 95 c50 53 89 102 87 110
-2 9 -11 21 -21 27 -16 10 -31 -1 -106 -81 l-88 -93 -69 0 -69 0 -90 90 c-49
50 -95 90 -102 90 -7 0 -17 -9 -23 -20z"/>
<path d="M1822 2097 c-67 -72 34 -172 103 -102 14 13 25 36 25 50 0 35 -42 75
-78 75 -17 0 -37 -9 -50 -23z"/>
<path d="M1695 1148 c-3 -7 -11 -34 -19 -60 l-14 -48 200 0 c185 0 199 1 194
18 -2 9 -10 36 -17 60 l-12 42 -164 0 c-122 0 -165 -3 -168 -12z"/>
<path d="M1644 987 c-2 -7 -13 -41 -23 -75 l-19 -62 259 0 259 0 -6 28 c-4 15
-14 47 -23 72 l-17 45 -212 3 c-170 2 -214 0 -218 -11z"/>
<path d="M1584 797 c-2 -7 -13 -41 -23 -75 l-19 -62 319 0 c249 0 319 3 318
13 0 6 -10 39 -22 72 l-22 60 -273 3 c-219 2 -274 0 -278 -11z"/>
</g>
</svg>
