<?xml version="1.0" standalone="no"?>
<!DOCTYPE svg PUBLIC "-//W3C//DTD SVG 20010904//EN"
 "http://www.w3.org/TR/2001/REC-SVG-20010904/DTD/svg10.dtd">
<svg version="1.0" xmlns="http://www.w3.org/2000/svg"
 width="385.000000pt" height="347.000000pt" viewBox="0 0 385.000000 347.000000"
 preserveAspectRatio="xMidYMid meet">
<metadata>
Created by potrace 1.15, written by Peter Selinger 2001-2017
</metadata>
<g transform="translate(0.000000,347.000000) scale(0.100000,-0.100000)"
fill="#000000" stroke="none">
<path d="M2625 2755 c-67 -16 -148 -51 -348 -151 -229 -115 -297 -154 -547
-319 -118 -78 -312 -199 -430 -270 -248 -148 -451 -283 -529 -352 -67 -59
-231 -249 -265 -308 -87 -148 -56 -284 99 -441 92 -92 153 -130 280 -173 98
-33 332 -71 435 -71 104 0 136 14 210 89 94 95 232 218 410 367 85 71 225 188
310 260 85 71 254 209 375 306 121 96 263 215 315 263 52 48 136 118 185 155
160 120 234 225 220 310 -10 57 -56 121 -133 182 -98 79 -121 94 -181 113 -49
17 -56 17 -113 1 l-60 -17 -61 30 c-78 37 -109 42 -172 26z m143 -63 c18 -8
30 -18 25 -22 -4 -4 -91 -40 -193 -80 -237 -94 -386 -164 -596 -282 -253 -143
-496 -274 -712 -383 -213 -108 -268 -144 -389 -261 -75 -73 -107 -124 -89
-142 15 -14 134 -13 199 2 84 20 87 20 59 0 -15 -10 -60 -19 -121 -24 -181
-16 -269 -72 -382 -243 l-59 -91 0 45 c0 25 10 66 24 94 41 90 233 302 351
390 73 55 339 224 535 340 63 38 210 130 326 206 256 167 432 266 667 377 224
105 268 114 355 74z m281 -33 c57 -25 172 -120 211 -172 46 -63 40 -124 -24
-211 -12 -15 -75 -71 -141 -124 -66 -53 -163 -135 -216 -182 -53 -48 -220
-186 -370 -308 -151 -121 -315 -255 -364 -298 -50 -42 -160 -134 -245 -204
-85 -71 -184 -158 -220 -195 -36 -36 -77 -75 -91 -85 l-25 -19 13 62 c27 129
9 219 -77 392 -69 140 -137 229 -199 262 -54 28 -150 31 -256 7 -38 -9 -97
-18 -130 -21 l-60 -5 75 77 c90 92 192 162 360 245 177 89 569 298 741 395 80
46 184 102 230 126 132 67 669 278 709 278 19 0 55 -8 79 -20z m-1752 -1138
c23 -16 53 -45 68 -65 35 -45 147 -267 139 -275 -3 -3 -12 2 -19 12 -10 14
-21 17 -43 12 -22 -4 -31 -2 -35 9 -8 20 -36 21 -43 2 -11 -28 14 -54 58 -59
98 -13 105 -16 112 -55 3 -21 6 -50 6 -65 0 -25 -3 -27 -33 -24 -18 2 -38 7
-45 11 -7 4 -19 3 -27 -4 -7 -6 -19 -10 -27 -9 -28 3 -38 -2 -38 -20 0 -29 18
-36 92 -36 37 0 70 -3 73 -7 9 -9 -22 -112 -50 -169 -39 -76 -92 -84 -332 -49
-181 26 -241 42 -339 90 -93 45 -168 109 -231 194 -45 61 -53 98 -30 130 11
15 17 16 35 7 11 -6 34 -11 51 -11 24 0 31 4 31 19 0 20 -18 31 -51 31 -27 0
-24 25 10 73 27 40 124 137 136 137 3 0 0 -10 -6 -22 -9 -17 -8 -24 5 -34 13
-9 15 -21 10 -50 -4 -31 -1 -45 16 -67 12 -15 29 -27 38 -27 10 0 34 -9 54
-20 29 -15 38 -17 47 -6 16 19 -20 53 -70 66 l-41 11 6 51 c5 32 3 55 -4 64
-9 10 -7 20 9 42 20 29 55 42 112 42 l29 0 -21 -21 c-17 -17 -20 -29 -16 -56
8 -46 25 -65 56 -61 33 4 42 37 12 45 -23 6 -27 24 -11 53 7 13 7 21 0 25 -19
12 -10 25 18 25 15 1 40 7 57 14 27 11 32 10 48 -11 22 -27 87 -32 107 -8 19
23 2 38 -36 30 -45 -8 -59 19 -25 47 35 28 91 23 138 -11z"/>
<path d="M1132 1200 c-26 -24 -28 -48 -7 -56 8 -4 15 -15 15 -26 0 -28 26 -74
52 -92 39 -27 138 -14 138 18 0 18 -23 27 -41 15 -42 -26 -99 9 -99 60 0 17
-4 33 -10 36 -16 10 -12 22 10 28 11 3 20 12 20 21 0 23 -51 20 -78 -4z"/>
<path d="M692 1168 c-20 -20 -15 -86 8 -98 11 -6 20 -17 20 -25 0 -25 42 -42
117 -48 56 -5 73 -3 77 8 9 24 -34 45 -91 45 -50 0 -52 1 -50 28 2 23 -2 27
-26 30 -22 3 -27 7 -22 20 18 42 -4 69 -33 40z"/>
<path d="M1018 945 c-17 -37 -2 -55 68 -83 50 -20 64 -22 95 -13 45 14 72 42
67 73 -4 28 -43 33 -43 5 0 -23 -22 -37 -57 -37 -17 0 -28 5 -28 14 0 17 -24
28 -45 20 -11 -5 -14 0 -13 17 4 34 -29 37 -44 4z"/>
</g>
</svg>
