<?xml version="1.0" standalone="no"?>
<!DOCTYPE svg PUBLIC "-//W3C//DTD SVG 20010904//EN"
 "http://www.w3.org/TR/2001/REC-SVG-20010904/DTD/svg10.dtd">
<svg version="1.0" xmlns="http://www.w3.org/2000/svg"
 width="392.000000pt" height="389.000000pt" viewBox="0 0 392.000000 389.000000"
 preserveAspectRatio="xMidYMid meet">
<metadata>
Created by potrace 1.15, written by Peter Selinger 2001-2017
</metadata>
<g transform="translate(0.000000,389.000000) scale(0.100000,-0.100000)"
fill="#000000" stroke="none">
<path d="M1826 3418 c-175 -265 -206 -399 -113 -504 60 -70 176 -101 271 -74
52 14 119 68 143 114 41 79 36 142 -22 262 -33 67 -189 314 -199 314 -3 0 -39
-51 -80 -112z m152 -217 c62 -119 69 -171 26 -214 -50 -50 -150 -49 -196 3
-48 53 -37 107 52 260 31 54 45 69 54 61 7 -6 36 -55 64 -110z"/>
<path d="M1707 2813 c-4 -3 -7 -89 -7 -190 l0 -183 -404 0 -404 0 -15 -37
c-52 -133 -56 -332 -7 -469 17 -50 20 -83 20 -234 0 -162 2 -179 23 -225 l24
-50 -24 -50 c-21 -47 -23 -62 -23 -257 l0 -208 -225 0 -225 0 0 -70 0 -70
1473 2 1472 3 0 65 0 65 -227 3 -228 2 0 216 c0 213 0 216 -26 259 l-25 44 25
44 26 44 0 259 c0 240 2 263 21 314 30 78 29 183 -3 275 l-24 70 -402 3 -402
2 0 190 0 190 -203 0 c-112 0 -207 -3 -210 -7z m1137 -524 c17 -89 -1 -176
-42 -198 -11 -6 -57 -7 -108 -4 -100 6 -195 -12 -245 -48 -16 -11 -46 -46 -67
-77 -31 -48 -43 -58 -70 -60 -44 -4 -55 7 -81 79 -42 115 -101 155 -216 147
-49 -3 -70 -10 -99 -31 -75 -57 -91 -126 -71 -303 37 -324 12 -404 -124 -404
-44 0 -55 4 -85 35 -56 56 -63 114 -37 310 25 189 26 224 6 272 -21 50 -42 72
-90 94 -81 38 -183 13 -223 -53 -11 -18 -29 -63 -42 -101 -25 -77 -50 -97
-120 -97 -82 0 -135 57 -160 171 -13 59 -10 265 4 287 5 9 224 12 935 12 l929
0 6 -31z m-752 -296 c9 -10 21 -36 28 -58 32 -102 63 -135 142 -156 82 -22
175 26 219 113 29 56 64 68 204 68 l115 0 0 -185 0 -185 -405 0 c-223 0 -405
3 -405 8 0 4 -7 66 -15 137 -27 239 -19 275 59 275 28 0 48 -6 58 -17z m-610
-10 c26 -31 27 -49 8 -175 -11 -68 -20 -144 -20 -170 l0 -48 -225 0 -225 0 0
81 c0 73 2 80 18 74 9 -4 41 -10 70 -13 121 -11 215 50 253 166 26 80 43 102
79 102 15 0 34 -8 42 -17z m18 -560 l19 -43 -231 0 -230 0 6 25 c4 14 2 34 -4
45 -11 20 -8 20 205 18 l216 -3 19 -42z m1260 39 c0 -4 -5 -13 -12 -20 -9 -9
-9 -15 0 -24 37 -37 25 -38 -394 -38 -383 0 -406 1 -399 18 4 9 12 29 17 45
l10 27 389 0 c214 0 389 -4 389 -8z m50 -377 l0 -175 -895 0 -895 0 0 175 0
175 895 0 895 0 0 -175z"/>
</g>
</svg>
