<?xml version="1.0" standalone="no"?>
<!DOCTYPE svg PUBLIC "-//W3C//DTD SVG 20010904//EN"
 "http://www.w3.org/TR/2001/REC-SVG-20010904/DTD/svg10.dtd">
<svg version="1.0" xmlns="http://www.w3.org/2000/svg"
 width="359.000000pt" height="398.000000pt" viewBox="0 0 359.000000 398.000000"
 preserveAspectRatio="xMidYMid meet">
<metadata>
Created by potrace 1.15, written by Peter Selinger 2001-2017
</metadata>
<g transform="translate(0.000000,398.000000) scale(0.100000,-0.100000)"
fill="#000000" stroke="none">
<path d="M2355 3482 c-154 -63 -281 -116 -282 -117 -3 -1 -173 -545 -173 -551
0 -2 -144 -4 -321 -4 l-320 0 -21 49 c-21 52 -40 68 -57 48 -7 -9 -4 -25 9
-54 l19 -42 -57 -3 -57 -3 -3 -475 c-3 -498 2 -573 40 -664 50 -119 154 -231
263 -282 28 -13 85 -31 128 -41 l77 -16 0 -261 -1 -261 -81 -60 -82 -60 -146
-5 c-120 -4 -145 -8 -145 -20 0 -13 62 -15 483 -18 457 -2 483 -1 480 15 -3
16 -20 19 -148 23 l-145 5 -82 63 -83 63 0 259 0 258 43 7 c208 32 371 167
439 363 23 67 23 70 23 587 l0 520 -102 3 c-57 1 -103 5 -103 8 0 19 155 501
164 510 6 6 128 59 271 118 143 59 266 113 274 120 14 15 7 37 -12 35 -7 0
-138 -53 -292 -117z m-1097 -777 c18 -36 32 -67 32 -70 0 -2 -21 -5 -47 -7
-40 -3 -48 -6 -48 -23 0 -20 8 -20 429 -23 331 -2 431 1 437 10 16 26 -13 38
-93 38 -60 0 -79 3 -75 13 2 6 13 38 23 70 l18 57 88 0 88 0 0 -480 c0 -317
-4 -497 -11 -532 -45 -213 -250 -377 -469 -378 -177 0 -331 88 -424 243 -63
105 -66 139 -66 671 l0 476 43 0 c43 0 43 0 75 -65z m622 58 c0 -5 -9 -35 -19
-68 l-19 -60 -250 -3 c-194 -2 -251 0 -255 10 -3 7 -17 39 -31 71 l-26 57 300
0 c165 0 300 -3 300 -7z"/>
<path d="M2020 2282 c0 -207 2 -251 14 -255 32 -13 36 18 34 259 l-3 239 -22
3 -23 3 0 -249z"/>
<path d="M1251 2281 c-61 -85 -78 -197 -45 -294 46 -137 216 -224 355 -183 59
17 149 71 149 90 0 18 -403 416 -422 416 -9 0 -26 -13 -37 -29z m222 -209
l178 -178 -41 -23 c-57 -32 -146 -39 -206 -16 -58 22 -119 76 -147 129 -29 58
-29 155 2 219 12 26 26 47 29 47 4 0 87 -80 185 -178z"/>
<path d="M1702 1787 c-111 -111 -202 -207 -202 -213 0 -16 40 -49 90 -74 101
-51 237 -32 328 45 83 72 122 210 88 313 -19 57 -70 132 -89 132 -7 0 -103
-91 -215 -203z m257 62 c39 -130 -36 -281 -158 -317 -77 -23 -181 -10 -228 30
-12 9 19 45 164 190 177 177 178 178 194 156 10 -12 22 -38 28 -59z"/>
<path d="M967 3373 c-90 -154 -337 -629 -333 -640 4 -9 14 -13 24 -10 34 9
1007 460 1022 473 10 10 11 17 3 25 -6 6 -167 44 -359 85 -398 85 -352 76
-357 67z m328 -108 c143 -31 267 -58 275 -61 8 -3 -181 -95 -419 -205 -238
-110 -435 -199 -436 -197 -1 2 61 121 139 265 121 224 144 261 161 257 11 -2
137 -29 280 -59z"/>
<path d="M2441 939 c-100 -40 -175 -139 -188 -249 l-6 -50 302 0 301 0 0 38
c0 96 -69 201 -164 249 -71 36 -171 41 -245 12z m204 -43 c80 -34 155 -126
155 -190 l0 -26 -250 0 c-283 0 -268 -5 -229 80 27 60 64 98 124 126 59 28
147 32 200 10z"/>
</g>
</svg>
