<?xml version="1.0" standalone="no"?>
<!DOCTYPE svg PUBLIC "-//W3C//DTD SVG 20010904//EN"
 "http://www.w3.org/TR/2001/REC-SVG-20010904/DTD/svg10.dtd">
<svg version="1.0" xmlns="http://www.w3.org/2000/svg"
 width="344.000000pt" height="373.000000pt" viewBox="0 0 344.000000 373.000000"
 preserveAspectRatio="xMidYMid meet">
<metadata>
Created by potrace 1.15, written by Peter Selinger 2001-2017
</metadata>
<g transform="translate(0.000000,373.000000) scale(0.100000,-0.100000)"
fill="#000000" stroke="none">
<path d="M1127 3239 c-84 -9 -155 -43 -185 -88 -31 -47 -59 -144 -72 -248 -16
-124 -18 -133 -36 -133 -29 0 -96 -44 -110 -72 -20 -38 -17 -98 6 -152 19 -45
21 -46 63 -46 l44 0 27 -192 c43 -304 183 -1346 191 -1420 10 -100 47 -166
110 -198 l50 -25 460 0 460 0 46 27 c76 45 102 120 134 393 9 77 27 208 41
290 13 83 51 332 83 555 33 223 65 440 72 483 9 59 15 77 28 77 31 1 59 35 71
86 20 89 -11 155 -86 178 -17 5 -23 20 -33 89 -27 178 -57 265 -114 325 -59
61 -80 64 -597 68 -256 2 -492 5 -525 7 -33 3 -91 1 -128 -4z m1129 -130 c67
-45 131 -172 148 -298 l7 -43 -33 6 c-18 3 -347 9 -732 12 l-698 7 7 61 c8 78
50 204 79 240 18 23 33 30 81 36 33 4 294 7 581 6 l520 -1 40 -26z m222 -429
c39 -15 55 -42 47 -80 -6 -28 -8 -28 -93 -36 -83 -7 -629 -2 -1304 13 l-318 6
0 33 c0 38 28 62 88 75 61 13 1541 2 1580 -11z m-418 -217 l375 -6 -20 -133
-20 -133 -58 -6 c-33 -4 -353 -4 -711 0 l-652 8 -20 145 -20 145 375 -6 c207
-4 545 -10 751 -14z m320 -370 c0 -26 -129 -855 -134 -860 -1 -2 -68 -8 -147
-13 -148 -9 -978 6 -990 19 -6 5 -120 826 -119 854 0 7 1390 7 1390 0z m-700
-982 c151 0 337 6 413 12 91 8 137 9 137 2 0 -13 -27 -172 -41 -245 -25 -123
-52 -140 -231 -141 -67 0 -197 -4 -288 -8 -315 -14 -449 14 -501 104 -14 24
-49 233 -49 292 0 5 64 3 143 -4 78 -7 266 -12 417 -12z"/>
<path d="M1714 2006 c-129 -42 -299 -191 -356 -312 -29 -60 -33 -79 -33 -149
0 -69 4 -86 27 -126 31 -52 77 -90 146 -122 36 -16 67 -21 132 -22 75 0 93 4
151 31 156 74 259 253 259 450 0 81 -9 111 -47 167 -52 75 -184 114 -279 83z
m56 -111 c0 -44 -38 -109 -127 -216 -86 -104 -125 -173 -139 -244 l-7 -39 -33
36 c-42 46 -59 107 -46 160 25 96 132 225 243 291 76 45 109 48 109 12z m133
-15 c49 -39 60 -138 29 -251 -43 -156 -141 -244 -291 -264 l-54 -7 5 45 c8 65
40 122 125 217 78 87 127 173 138 241 8 45 13 47 48 19z"/>
</g>
</svg>
