<?xml version="1.0" standalone="no"?>
<!DOCTYPE svg PUBLIC "-//W3C//DTD SVG 20010904//EN"
 "http://www.w3.org/TR/2001/REC-SVG-20010904/DTD/svg10.dtd">
<svg version="1.0" xmlns="http://www.w3.org/2000/svg"
 width="376.000000pt" height="343.000000pt" viewBox="0 0 376.000000 343.000000"
 preserveAspectRatio="xMidYMid meet">
<metadata>
Created by potrace 1.15, written by Peter Selinger 2001-2017
</metadata>
<g transform="translate(0.000000,343.000000) scale(0.100000,-0.100000)"
fill="#000000" stroke="none">
<path d="M1671 2732 c-78 -79 -140 -164 -229 -311 -45 -75 -80 -120 -121 -156
-33 -27 -89 -85 -126 -127 -61 -70 -80 -84 -208 -153 -145 -79 -243 -141 -265
-168 -20 -23 -4 -64 37 -98 40 -33 75 -35 79 -4 2 13 -8 27 -28 40 -16 11 -30
25 -30 31 0 10 159 106 320 193 42 22 86 54 98 71 39 52 146 162 186 192 30
22 50 28 89 28 118 0 264 -61 412 -172 162 -122 182 -131 278 -130 97 2 132 6
300 38 214 40 387 30 509 -32 43 -22 53 -24 65 -12 7 8 11 21 8 30 -9 22 -128
74 -203 89 -85 16 -292 6 -412 -20 -52 -12 -149 -24 -215 -26 -116 -5 -119 -5
-80 10 43 17 56 31 48 52 -7 19 -44 16 -105 -7 -32 -12 -56 -16 -61 -11 -10
10 46 38 95 48 34 7 50 25 42 48 -9 23 -62 16 -143 -20 -103 -47 -78 -21 29
29 98 46 114 62 86 85 -17 14 -74 -5 -176 -61 -41 -23 -69 -34 -61 -24 15 17
137 95 186 117 36 17 41 52 8 57 -26 4 -85 -25 -181 -90 -41 -27 -77 -47 -80
-43 -9 9 86 94 165 148 46 31 62 47 60 62 -6 51 -80 12 -226 -118 -62 -56 -81
-67 -81 -48 0 18 110 129 181 183 69 53 84 80 52 92 -25 10 -106 -50 -213
-159 -57 -59 -99 -94 -107 -90 -12 4 -11 10 5 33 38 53 196 215 234 238 42 27
48 48 19 63 -15 8 -28 4 -62 -21 -50 -36 -147 -135 -221 -225 -44 -54 -78 -79
-78 -57 0 16 165 218 232 286 79 77 91 108 45 108 -28 0 -164 -141 -267 -277
-47 -62 -87 -108 -88 -103 -9 27 163 272 252 360 57 55 69 83 40 94 -24 9 -22
10 -93 -62z"/>
<path d="M2485 1974 c-76 -14 -185 -27 -262 -31 -137 -5 -160 -13 -147 -48 6
-16 20 -17 143 -12 85 3 176 14 241 28 135 29 341 32 409 6 39 -15 47 -16 59
-3 41 41 -48 75 -208 82 -84 3 -131 -1 -235 -22z"/>
<path d="M1317 1963 c-15 -14 -6 -34 29 -65 51 -46 84 -120 84 -188 0 -82 -43
-151 -135 -212 -38 -26 -89 -54 -113 -63 -40 -16 -44 -16 -69 0 l-27 18 45 22
c93 48 132 110 132 216 0 64 -17 157 -35 192 -9 18 -43 23 -53 7 -3 -5 1 -36
10 -69 23 -91 20 -190 -8 -232 -25 -38 -97 -79 -139 -79 -18 0 -53 18 -96 49
-133 96 -211 143 -227 138 -34 -13 -14 -44 63 -96 42 -30 168 -119 279 -198
111 -79 227 -155 258 -170 52 -23 65 -25 134 -19 42 3 88 9 103 12 25 6 28 3
38 -37 22 -81 101 -272 136 -331 25 -41 58 -76 112 -116 180 -137 237 -165
237 -117 0 13 -35 45 -113 101 -146 105 -167 126 -207 204 -37 74 -115 281
-115 307 0 30 17 1 55 -97 46 -115 99 -224 131 -266 30 -41 259 -196 282 -192
10 2 17 12 17 24 0 16 -27 40 -105 92 -58 39 -115 80 -127 91 -35 33 -70 99
-128 243 -53 128 -54 132 -24 98 59 -67 157 -196 218 -286 63 -94 153 -188
173 -182 6 2 16 11 21 19 7 12 -2 27 -40 65 -27 27 -78 91 -112 143 -34 51
-100 140 -147 197 -46 58 -84 107 -84 109 0 3 19 14 41 26 60 30 132 106 154
162 l20 49 50 -7 c28 -3 84 -20 125 -37 46 -19 101 -33 140 -36 l65 -5 110
-103 c151 -140 244 -217 348 -285 74 -49 92 -57 109 -48 32 17 17 39 -54 83
-147 90 -432 345 -653 585 -116 127 -146 148 -159 115 -9 -22 -4 -29 122 -163
66 -71 107 -121 98 -121 -9 0 -58 16 -109 36 -71 28 -108 37 -161 38 -75 1
-69 5 -107 -77 -44 -98 -153 -167 -334 -212 -161 -40 -193 -36 -313 38 l-63
40 67 36 c68 37 68 37 119 23 112 -30 395 32 395 87 0 30 -25 32 -92 7 -78
-30 -206 -50 -259 -41 l-39 7 30 34 c45 52 62 92 68 160 7 89 -19 162 -81 230
-45 50 -73 64 -90 47z"/>
<path d="M2575 1883 c-22 -2 -107 -15 -188 -30 -141 -25 -149 -26 -177 -10
-26 15 -30 16 -44 2 -8 -9 -13 -21 -10 -28 5 -14 152 -119 223 -160 27 -15 75
-37 107 -48 50 -18 59 -19 72 -5 24 24 9 39 -62 64 -36 13 -68 27 -71 32 -3 4
35 11 84 15 94 7 115 20 85 50 -18 18 -34 18 -164 4 -69 -8 -104 -9 -111 -2
-15 15 187 50 333 59 125 7 153 18 123 48 -16 16 -85 19 -200 9z"/>
<path d="M2432 1568 c-7 -7 -12 -17 -12 -24 0 -25 321 -301 462 -398 48 -33
60 -37 73 -26 27 22 16 38 -62 92 -68 47 -74 53 -52 56 14 2 46 -4 70 -13 72
-27 95 -29 103 -9 4 10 1 23 -6 31 -27 26 -132 55 -205 57 -69 1 -73 3 -125
46 -29 24 -90 79 -135 122 -45 43 -85 78 -90 78 -5 0 -14 -5 -21 -12z"/>
</g>
</svg>
