<?xml version="1.0" standalone="no"?>
<!DOCTYPE svg PUBLIC "-//W3C//DTD SVG 20010904//EN"
 "http://www.w3.org/TR/2001/REC-SVG-20010904/DTD/svg10.dtd">
<svg version="1.0" xmlns="http://www.w3.org/2000/svg"
 width="368.000000pt" height="387.000000pt" viewBox="0 0 368.000000 387.000000"
 preserveAspectRatio="xMidYMid meet">
<metadata>
Created by potrace 1.15, written by Peter Selinger 2001-2017
</metadata>
<g transform="translate(0.000000,387.000000) scale(0.100000,-0.100000)"
fill="#000000" stroke="none">
<path d="M1650 3443 c-107 -18 -261 -90 -350 -164 -111 -92 -183 -199 -233
-344 -40 -117 -48 -272 -22 -392 28 -126 96 -258 182 -354 31 -34 44 -75 179
-565 228 -832 234 -856 251 -909 19 -60 57 -100 106 -113 62 -17 133 13 162
68 9 17 95 317 191 668 96 350 177 644 180 653 4 15 8 14 42 -2 31 -15 44 -17
75 -8 40 11 74 40 88 77 5 13 9 96 9 185 0 97 6 202 16 262 41 264 0 455 -137
640 -100 136 -262 244 -427 285 -73 19 -238 25 -312 13z m282 -88 c228 -47
432 -229 509 -455 30 -89 37 -253 15 -375 -11 -60 -16 -149 -16 -267 0 -190
-5 -208 -53 -208 -47 0 -52 12 -57 144 -5 115 -7 126 -29 150 -14 15 -42 31
-62 37 -31 10 -43 9 -76 -7 -68 -33 -69 -43 -78 -411 -6 -276 -9 -331 -23
-345 -19 -22 -50 -23 -73 -2 -17 15 -18 33 -12 230 l6 213 -40 41 c-35 34 -47
40 -83 40 -51 0 -91 -22 -116 -64 -16 -27 -20 -58 -24 -234 -5 -187 -7 -205
-24 -218 -20 -14 -52 -11 -71 8 -6 5 -10 105 -10 258 l0 248 -25 27 c-40 44
-79 55 -194 55 l-105 0 -45 64 c-132 185 -168 402 -101 612 105 332 444 529
787 459z m-438 -1524 l-58 -54 -18 63 c-9 35 -19 71 -20 81 -2 11 23 40 72 82
l75 65 3 -92 3 -91 -57 -54z m398 222 c14 -13 18 -31 18 -89 l0 -72 -57 -51
c-32 -27 -59 -48 -61 -46 -2 1 0 58 4 125 7 128 16 150 56 150 12 0 30 -7 40
-17z m-56 -514 c-69 -64 -70 -65 -107 -55 -68 18 -140 -46 -143 -128 0 -25 -5
-47 -10 -49 -5 -1 -19 33 -31 76 l-23 77 50 45 c40 36 54 43 77 39 64 -13 141
53 141 120 0 23 12 40 53 77 l52 47 5 -92 6 -91 -70 -66z m180 -6 c18 -3 42 0
54 7 12 6 23 10 25 8 2 -2 -1 -25 -8 -50 -11 -44 -27 -60 -217 -230 -114 -101
-213 -189 -221 -195 -14 -11 -19 -2 -38 68 -21 76 -21 82 -6 100 15 15 27 17
79 12 57 -5 64 -3 94 21 37 32 58 90 44 125 -8 22 -2 31 62 88 48 43 75 61 86
57 8 -4 29 -9 46 -11z m-7 -320 c-16 -60 -32 -119 -36 -133 -3 -14 -42 -57
-90 -100 -47 -41 -107 -94 -134 -118 l-48 -43 -15 51 c-36 121 -50 96 159 283
103 92 189 167 190 167 2 0 -10 -48 -26 -107z m-109 -398 c-17 -62 -38 -117
-49 -128 -25 -25 -78 -25 -102 0 -37 37 -29 54 76 149 55 51 101 91 102 90 1
-1 -11 -51 -27 -111z"/>
<path d="M2363 1862 c-35 -27 -45 -67 -29 -107 32 -75 130 -76 162 0 34 82
-64 162 -133 107z"/>
</g>
</svg>
