<?xml version="1.0" standalone="no"?>
<!DOCTYPE svg PUBLIC "-//W3C//DTD SVG 20010904//EN"
 "http://www.w3.org/TR/2001/REC-SVG-20010904/DTD/svg10.dtd">
<svg version="1.0" xmlns="http://www.w3.org/2000/svg"
 width="391.000000pt" height="359.000000pt" viewBox="0 0 391.000000 359.000000"
 preserveAspectRatio="xMidYMid meet">
<metadata>
Created by potrace 1.15, written by Peter Selinger 2001-2017
</metadata>
<g transform="translate(0.000000,359.000000) scale(0.100000,-0.100000)"
fill="#000000" stroke="none">
<path d="M2349 2876 c-44 -15 -74 -38 -118 -88 -18 -20 -40 -40 -51 -43 -10
-3 -53 9 -96 27 -74 30 -86 32 -199 32 -102 0 -129 -4 -180 -24 -89 -35 -118
-30 -169 24 -23 25 -58 52 -79 61 -129 54 -289 -38 -337 -193 -48 -155 -8
-267 132 -363 l63 -42 0 -101 c0 -115 20 -183 76 -262 32 -44 33 -46 15 -60
-11 -7 -44 -21 -75 -30 -157 -45 -221 -127 -208 -267 7 -74 45 -138 112 -189
63 -48 69 -60 69 -143 0 -86 -9 -102 -95 -185 -58 -55 -70 -74 -84 -124 -52
-181 90 -362 270 -343 54 5 68 12 165 73 64 40 105 43 235 18 78 -16 90 -16
167 0 127 25 157 22 219 -20 76 -52 110 -64 177 -64 142 0 251 111 252 258 0
89 -17 121 -99 186 -75 60 -91 90 -91 171 0 47 17 115 29 115 5 0 42 22 83 49
84 55 113 94 130 174 27 126 -37 235 -167 287 -33 13 -66 28 -72 33 -23 17
-14 64 27 139 42 78 61 166 53 244 -4 38 -2 42 36 69 105 72 148 158 138 279
-12 149 -68 259 -151 297 -48 22 -125 24 -177 5z m151 -98 c46 -31 80 -102 93
-192 15 -101 -5 -151 -83 -215 -81 -66 -84 -71 -90 -196 -5 -106 -7 -112 -45
-173 -30 -50 -40 -76 -43 -121 -4 -53 -2 -61 27 -93 19 -23 52 -43 90 -57 100
-36 141 -85 141 -167 0 -63 -25 -98 -108 -153 -88 -57 -116 -94 -133 -170 -25
-119 11 -228 98 -293 65 -50 73 -63 73 -125 0 -67 -33 -122 -90 -151 -65 -33
-108 -29 -171 15 -66 45 -137 73 -186 73 -20 0 -74 -5 -120 -12 -71 -10 -98
-10 -186 5 -126 21 -182 11 -281 -51 -52 -34 -75 -42 -112 -42 -113 0 -190
100 -168 217 5 29 25 57 80 113 86 89 104 131 103 234 -1 102 -15 132 -89 192
-34 28 -69 62 -76 75 -37 68 -22 158 34 195 17 12 64 32 104 44 141 43 172
111 99 224 -51 79 -63 126 -60 246 2 71 -1 103 -11 115 -7 9 -46 38 -85 66
-89 61 -115 103 -115 185 1 91 46 175 112 210 15 8 50 14 79 14 46 0 55 -4 87
-37 80 -82 126 -91 247 -48 58 20 89 25 177 25 102 0 109 -1 173 -35 110 -57
152 -54 220 19 27 29 64 60 80 69 43 23 96 21 135 -5z"/>
<path d="M1598 2484 c-63 -34 -78 -131 -29 -186 26 -29 36 -33 79 -33 56 0 86
20 108 71 21 51 -6 123 -56 149 -36 19 -67 19 -102 -1z m81 -44 c49 -26 46
-111 -4 -130 -37 -14 -43 -13 -70 15 -30 30 -32 64 -4 99 21 27 48 33 78 16z"/>
<path d="M2062 2480 c-65 -40 -80 -141 -27 -187 100 -87 237 21 180 141 -17
36 -61 66 -97 66 -12 0 -38 -9 -56 -20z m93 -45 c47 -46 20 -125 -42 -125 -37
0 -49 9 -63 44 -13 36 -6 60 27 86 33 26 49 25 78 -5z"/>
<path d="M1808 2225 c-51 -28 -48 -75 8 -124 59 -52 142 -36 180 35 17 30 17
33 0 59 -9 14 -28 30 -42 35 -37 14 -115 11 -146 -5z"/>
<path d="M1444 1697 c84 -53 114 -111 97 -188 -12 -53 -41 -76 -103 -85 -51
-7 -61 -18 -28 -29 36 -11 100 6 135 36 41 36 62 109 45 154 -26 69 -91 126
-142 124 -22 0 -22 -1 -4 -12z"/>
<path d="M1752 1544 c-82 -41 -128 -109 -173 -254 -34 -111 -33 -217 4 -292
33 -67 90 -121 166 -157 46 -21 70 -26 136 -26 69 0 86 4 127 28 59 34 108 94
150 183 31 64 33 76 33 174 0 95 -3 110 -28 163 -86 173 -269 254 -415 181z
m229 -50 c55 -27 109 -85 146 -156 24 -47 28 -64 28 -144 0 -84 -2 -95 -37
-166 -81 -162 -197 -213 -344 -148 -54 23 -120 84 -147 134 -62 117 9 393 123
478 30 22 102 37 150 30 19 -3 56 -15 81 -28z"/>
</g>
</svg>
