<?xml version="1.0" standalone="no"?>
<!DOCTYPE svg PUBLIC "-//W3C//DTD SVG 20010904//EN"
 "http://www.w3.org/TR/2001/REC-SVG-20010904/DTD/svg10.dtd">
<svg version="1.0" xmlns="http://www.w3.org/2000/svg"
 width="319.000000pt" height="368.000000pt" viewBox="0 0 319.000000 368.000000"
 preserveAspectRatio="xMidYMid meet">
<metadata>
Created by potrace 1.15, written by Peter Selinger 2001-2017
</metadata>
<g transform="translate(0.000000,368.000000) scale(0.100000,-0.100000)"
fill="#000000" stroke="none">
<path d="M1320 3365 c-7 -8 -71 -429 -148 -970 l-137 -955 132 -265 133 -264
-130 -216 c-72 -119 -130 -224 -130 -234 0 -41 1 -41 587 -41 556 0 562 0 573
20 13 24 6 37 -158 310 l-100 164 133 266 132 265 -136 951 c-88 612 -141 957
-150 968 -12 14 -46 16 -301 16 -242 0 -290 -2 -300 -15z m535 -97 c4 -22 35
-233 35 -243 0 -3 -121 -5 -268 -5 l-269 0 18 123 c10 67 19 128 19 135 0 9
53 12 230 12 l230 0 5 -22z m146 -1023 c54 -374 100 -695 103 -712 l5 -33
-485 0 c-388 0 -484 3 -484 13 0 7 45 327 100 712 55 385 100 701 100 702 0 2
127 2 282 1 l282 -3 97 -680z m79 -850 c0 -3 -48 -102 -107 -220 l-108 -215
-242 0 -243 0 -110 220 -110 220 460 0 c253 0 460 -2 460 -5z m-106 -710 l105
-175 -455 0 c-251 0 -454 4 -452 9 2 4 48 83 103 175 l100 166 247 0 247 0
105 -175z"/>
<path d="M1505 2826 c-17 -7 -45 -29 -62 -49 -77 -88 -46 -229 61 -278 52 -23
90 -24 141 0 141 64 148 254 12 320 -49 24 -108 26 -152 7z m117 -87 c55 -29
53 -125 -3 -154 -42 -22 -67 -18 -100 14 -73 74 11 189 103 140z"/>
<path d="M1655 2420 c-49 -24 -75 -65 -75 -117 0 -50 18 -82 60 -111 28 -19
44 -23 83 -19 143 13 168 205 34 256 -40 15 -56 14 -102 -9z"/>
<path d="M1440 2148 c-117 -60 -113 -227 7 -280 41 -18 43 -20 43 -64 0 -146
142 -251 283 -210 74 21 132 79 153 153 41 141 -64 283 -210 283 -44 0 -46 2
-64 43 -37 83 -132 116 -212 75z m107 -83 c11 -8 25 -34 32 -59 13 -52 40 -66
128 -66 46 0 58 -4 89 -32 43 -40 57 -90 38 -143 -16 -48 -31 -63 -79 -79 -53
-19 -103 -5 -142 38 -29 31 -33 43 -33 89 0 88 -14 115 -66 128 -72 19 -94 70
-49 114 28 29 51 31 82 10z"/>
</g>
</svg>
